<svg width="129" height="40" viewBox="0 0 129 40" fill="none" xmlns="http://www.w3.org/2000/svg">
<path d="M7.44 16.84C8.184 16.84 8.904 16.36 8.904 17.056C8.904 18.064 7.104 19.384 5.472 19.384C2.472 19.384 2.112 16.936 2.112 13.456V11.44C2.112 8.944 0.168 8.968 0.168 7.888C0.168 7.12 1.488 6.376 2.616 5.68C3.552 5.08 4.848 4.264 5.28 4.264C6 4.264 5.928 5.152 5.928 5.8V7.12H7.44C7.896 7.12 8.232 7.432 8.232 7.888C8.232 8.344 7.896 8.68 7.44 8.68H5.928V12.688C5.928 15.424 6 16.84 7.44 16.84ZM16.0269 8.296C13.8669 8.296 14.7789 11.968 12.5229 11.968C11.5149 11.968 10.9629 11.128 10.9629 9.952C10.9629 8.368 12.1629 6.736 16.0269 6.736C19.5789 6.736 21.5469 7.912 21.5469 11.32V13.072C21.5469 15.688 23.1069 16.312 23.1069 17.464C23.1069 18.472 21.6909 19.024 20.5149 19.024C18.9309 19.024 18.2589 18.04 17.9469 16.936C16.9389 18.424 15.4029 19.384 13.4349 19.384C11.2749 19.384 9.69094 18.04 9.69094 16.096C9.69094 12.52 13.0989 12.952 15.5709 11.512C17.8269 10.192 17.2029 8.296 16.0509 8.296H16.0269ZM14.7789 17.368C16.4829 17.368 17.7309 14.416 17.7309 12.28V11.8C17.2509 12.328 16.6749 12.64 16.1229 13C14.8749 13.792 13.5789 14.536 13.5789 16C13.5789 16.744 14.0589 17.368 14.7789 17.368ZM33.8775 11.968C31.6215 11.968 32.2935 8.296 29.9175 8.296C29.0535 8.296 28.4055 8.728 28.4055 9.376C28.4055 11.824 35.7975 11.32 35.7975 15.664C35.7975 18.088 33.5895 19.384 30.1095 19.384C26.0775 19.384 23.9655 17.752 23.9655 16.192C23.9655 14.992 24.4935 13.576 25.5015 13.576C27.7575 13.576 27.5175 17.824 30.6375 17.824C31.6215 17.824 32.2935 17.416 32.2935 16.744C32.2935 14.56 24.8055 14.8 24.8055 10.288C24.8055 8.008 26.7015 6.736 29.7975 6.736C34.2375 6.736 35.4375 8.368 35.4375 9.952C35.4375 11.128 34.8855 11.968 33.8775 11.968ZM36.6128 2.32C36.6128 1.312 38.0048 0.783998 39.2048 0.783998C41.1968 0.783998 41.9888 1.912 41.9888 4.336V10.552L42.9968 10.168C43.9808 9.784 45.2048 9.424 45.2048 8.272C45.2048 7.264 45.9728 6.736 47.3168 6.736C48.6368 6.736 49.4288 7.336 49.4288 8.08C49.4288 8.752 48.9968 9.52 47.8448 10L46.8368 10.384C45.7808 10.84 45.7568 11.44 46.5248 12.808L47.0048 13.648C48.6368 16.6 50.6048 16.36 50.6048 17.44C50.6048 18.448 49.2608 19.384 47.9648 19.384C46.0448 19.384 45.2048 18.28 44.4368 16.84L41.9888 12.328V13.072C41.9888 16.216 43.2608 16.84 43.2608 17.92C43.2608 18.352 42.9968 19.024 41.9888 19.024H38.1728C37.1408 19.024 36.8768 18.352 36.8768 17.92C36.8768 16.84 38.1728 16.216 38.1728 13.072V7.12C38.1728 4.144 36.6128 3.472 36.6128 2.32ZM51.3874 8.2C51.3874 7.216 52.7794 6.736 53.9794 6.736C55.5154 6.736 56.3554 7.408 56.6434 8.848C57.6034 7.576 59.0194 6.736 60.5554 6.736C61.9474 6.736 63.0274 7.36 63.4834 9.04C64.4914 7.648 65.9554 6.736 67.5634 6.736C69.4354 6.736 70.7554 7.912 70.7554 11.32V13.072C70.7554 16.048 72.3394 16.72 72.3394 17.92C72.3394 18.928 70.9234 19.384 69.7234 19.384C67.7314 19.384 66.9394 18.256 66.9394 15.832V12.28C66.9394 10.144 66.9154 8.752 66.2434 8.752C64.9954 8.752 63.7474 10.912 63.7474 13.072C63.7474 16.216 65.0434 16.84 65.0434 17.92C65.0434 18.352 64.7794 19.024 63.7474 19.024H59.9554C58.9234 19.024 58.6594 18.352 58.6594 17.92C58.6594 16.84 59.9554 16.216 59.9554 13.072C59.9554 10.144 59.9314 8.752 59.2354 8.752C57.9874 8.752 56.7634 10.912 56.7634 13.072C56.7634 16.216 58.0354 16.84 58.0354 17.92C58.0354 18.352 57.7714 19.024 56.7634 19.024H52.9474C51.9154 19.024 51.6514 18.352 51.6514 17.92C51.6514 16.84 52.9474 16.216 52.9474 13.072C52.9474 10.096 51.3874 9.4 51.3874 8.2ZM79.4957 8.296C77.3357 8.296 78.2477 11.968 75.9917 11.968C74.9837 11.968 74.4317 11.128 74.4317 9.952C74.4317 8.368 75.6317 6.736 79.4957 6.736C83.0477 6.736 85.0157 7.912 85.0157 11.32V13.072C85.0157 15.688 86.5757 16.312 86.5757 17.464C86.5757 18.472 85.1597 19.024 83.9837 19.024C82.3997 19.024 81.7277 18.04 81.4157 16.936C80.4077 18.424 78.8717 19.384 76.9037 19.384C74.7437 19.384 73.1597 18.04 73.1597 16.096C73.1597 12.52 76.5677 12.952 79.0397 11.512C81.2957 10.192 80.6717 8.296 79.5197 8.296H79.4957ZM78.2477 17.368C79.9517 17.368 81.1997 14.416 81.1997 12.28V11.8C80.7197 12.328 80.1437 12.64 79.5917 13C78.3437 13.792 77.0477 14.536 77.0477 16C77.0477 16.744 77.5277 17.368 78.2477 17.368ZM90.0263 6.736C91.5383 6.736 92.3543 7.384 92.6663 8.776C93.6743 7.528 95.2103 6.736 97.0823 6.736C99.4343 6.736 100.754 7.912 100.754 11.32V13.072C100.754 16.048 102.338 16.72 102.338 17.92C102.338 18.928 100.922 19.384 99.7223 19.384C97.7303 19.384 96.9383 18.256 96.9383 15.832V12.28C96.9383 10.144 96.9143 8.752 95.7623 8.752C94.0343 8.752 92.8103 10.816 92.8103 13.072C92.8103 16.216 94.0823 16.84 94.0823 17.92C94.0823 18.352 93.8183 19.024 92.8103 19.024H88.9943C87.9623 19.024 87.6982 18.352 87.6982 17.92C87.6982 16.84 88.9943 16.216 88.9943 13.072C88.9943 10.096 87.4343 9.4 87.4343 8.2C87.4343 7.216 88.8263 6.736 90.0263 6.736Z" fill="white"/>
<path d="M4.48047 37H2.07812V28.5156H4.65625C7.04688 28.5156 8.47656 30.0977 8.47656 32.7344C8.46484 35.418 7.01172 37 4.48047 37ZM2.6875 36.4375H4.45703C6.68359 36.4375 7.87891 35.0547 7.87891 32.7344C7.86719 30.4492 6.71875 29.0664 4.62109 29.0664H2.6875V36.4375ZM9.71875 35.2422C9.71875 34.1172 10.5273 33.4727 12.0156 33.3555C12.4668 33.3145 13.5273 33.2441 13.832 33.2266V32.5469C13.832 31.6445 13.2109 31.0703 12.1797 31.0703C11.3125 31.0703 10.668 31.4805 10.5039 32.1367H9.89453C10.0352 31.1641 10.9727 30.543 12.2031 30.543C13.2812 30.543 14.418 31.1055 14.418 32.5938V37H13.832V35.8984H13.7852C13.4688 36.5664 12.7773 37.1406 11.7578 37.1406C10.6445 37.1406 9.71875 36.4609 9.71875 35.2422ZM10.3047 35.2656C10.3047 36.0977 10.9609 36.6016 11.8281 36.6016C13.0117 36.6016 13.832 35.6758 13.832 34.457V33.7305C13.5098 33.7598 12.4785 33.8418 12.1328 33.8594C10.8086 33.9531 10.3047 34.5039 10.3047 35.2656ZM19.7852 32.1367C19.6445 31.4805 19.1055 31.0703 18.2852 31.0703C17.3711 31.0586 16.7383 31.5742 16.7383 32.2773C16.7383 32.8398 17.125 33.2266 17.9336 33.4258L18.918 33.6719C19.9375 33.918 20.4531 34.4922 20.4531 35.3125C20.4531 36.3789 19.5859 37.1289 18.168 37.1289C16.8906 37.1289 16.082 36.5195 15.918 35.4297H16.5391C16.668 36.1914 17.2422 36.6016 18.168 36.6016C19.1875 36.6016 19.8555 36.1094 19.8555 35.3477C19.8555 34.7852 19.4805 34.3867 18.707 34.1992L17.7227 33.9531C16.6914 33.707 16.1406 33.1211 16.1406 32.3008C16.1406 31.2695 17.0195 30.543 18.2852 30.543C19.4688 30.543 20.2305 31.1992 20.3828 32.1367H19.7852ZM22.5273 32.9219V37H21.9414V28.5156H22.5273V31.6445H22.5859C22.8789 30.9766 23.5469 30.5547 24.4727 30.5547C25.7617 30.5547 26.6523 31.3984 26.6523 32.8281V37H26.0547V32.8633C26.0547 31.7852 25.375 31.0938 24.3438 31.0938C23.2891 31.0938 22.5273 31.8203 22.5273 32.9219ZM28.6328 37V28.5156H29.2305V31.9961H29.2773C29.5586 31.2461 30.1914 30.543 31.293 30.543C32.8281 30.543 33.8594 31.9023 33.8594 33.8359C33.8594 35.7812 32.8398 37.1289 31.3047 37.1289C30.1914 37.1289 29.5703 36.4258 29.2773 35.6758H29.207V37H28.6328ZM29.2188 33.8242C29.2188 35.418 29.9688 36.5898 31.2344 36.5898C32.5234 36.5898 33.2734 35.3828 33.2734 33.8242C33.2734 32.2773 32.5234 31.082 31.2344 31.082C29.9688 31.082 29.2188 32.2422 29.2188 33.8242ZM37.75 37.1289C36.1445 37.1289 34.9961 35.7578 34.9961 33.8359C34.9961 31.9141 36.1445 30.543 37.75 30.543C39.3555 30.543 40.5039 31.9141 40.5039 33.8359C40.5039 35.7578 39.3555 37.1289 37.75 37.1289ZM37.75 36.5898C39.0742 36.5898 39.9062 35.3711 39.9062 33.8359C39.9062 32.3125 39.0742 31.082 37.75 31.082C36.4258 31.082 35.5938 32.3242 35.5938 33.8359C35.5938 35.3711 36.4258 36.5898 37.75 36.5898ZM41.6523 35.2422C41.6523 34.1172 42.4609 33.4727 43.9492 33.3555C44.4004 33.3145 45.4609 33.2441 45.7656 33.2266V32.5469C45.7656 31.6445 45.1445 31.0703 44.1133 31.0703C43.2461 31.0703 42.6016 31.4805 42.4375 32.1367H41.8281C41.9688 31.1641 42.9062 30.543 44.1367 30.543C45.2148 30.543 46.3516 31.1055 46.3516 32.5938V37H45.7656V35.8984H45.7188C45.4023 36.5664 44.7109 37.1406 43.6914 37.1406C42.5781 37.1406 41.6523 36.4609 41.6523 35.2422ZM42.2383 35.2656C42.2383 36.0977 42.8945 36.6016 43.7617 36.6016C44.9453 36.6016 45.7656 35.6758 45.7656 34.457V33.7305C45.4434 33.7598 44.4121 33.8418 44.0664 33.8594C42.7422 33.9531 42.2383 34.5039 42.2383 35.2656ZM48.1914 37V30.6367H48.7656V31.6328H48.8125C49.082 30.9766 49.7852 30.543 50.6055 30.543L50.9102 30.5547V31.1523C50.8398 31.1406 50.7227 31.1172 50.5703 31.1172C49.5391 31.1172 48.7773 31.8438 48.7773 32.8398V37H48.1914ZM54.0273 37.1289C52.4805 37.1289 51.4609 35.7812 51.4609 33.8359C51.4609 31.9023 52.4922 30.543 54.0391 30.543C55.1406 30.543 55.7734 31.2461 56.0547 31.9961H56.1016V28.5156H56.6875V37H56.1133V35.6758H56.0547C55.7617 36.4258 55.1289 37.1289 54.0273 37.1289ZM54.0859 36.5898C55.3633 36.5898 56.1133 35.418 56.1133 33.8242C56.1133 32.2422 55.3633 31.082 54.0859 31.082C52.7969 31.082 52.0586 32.2773 52.0586 33.8242C52.0586 35.3828 52.7969 36.5898 54.0859 36.5898ZM63.9531 30.6367V31.1523H62.5703L62.5586 37H61.9727V31.1523H61.0352V30.6367H61.9727V29.6758C61.9727 28.7148 62.5352 28.1289 63.4961 28.1289C63.6836 28.1289 63.9062 28.1523 64.0586 28.1758V28.7266C63.9062 28.6914 63.7305 28.6797 63.5898 28.6797C62.9102 28.6797 62.5703 29.0664 62.5703 29.7695V30.6367H63.9531ZM67.4102 37.1289C65.8047 37.1289 64.6562 35.7578 64.6562 33.8359C64.6562 31.9141 65.8047 30.543 67.4102 30.543C69.0156 30.543 70.1641 31.9141 70.1641 33.8359C70.1641 35.7578 69.0156 37.1289 67.4102 37.1289ZM67.4102 36.5898C68.7344 36.5898 69.5664 35.3711 69.5664 33.8359C69.5664 32.3125 68.7344 31.082 67.4102 31.082C66.0859 31.082 65.2539 32.3242 65.2539 33.8359C65.2539 35.3711 66.0859 36.5898 67.4102 36.5898ZM71.6406 37V30.6367H72.2148V31.6328H72.2617C72.5312 30.9766 73.2344 30.543 74.0547 30.543L74.3594 30.5547V31.1523C74.2891 31.1406 74.1719 31.1172 74.0195 31.1172C72.9883 31.1172 72.2266 31.8438 72.2266 32.8398V37H71.6406ZM78.25 39.3906V30.6367H78.8242V31.9961H78.8945C79.1758 31.2461 79.7969 30.543 80.9102 30.543C82.457 30.543 83.4766 31.8906 83.4766 33.8359C83.4766 35.7695 82.4453 37.1289 80.9219 37.1289C79.8203 37.1289 79.1758 36.4258 78.8945 35.6758H78.8359V39.3906H78.25ZM78.8359 33.8242C78.8359 35.418 79.5859 36.5898 80.8516 36.5898C82.1406 36.5898 82.8789 35.3828 82.8789 33.8242C82.8789 32.2773 82.1523 31.082 80.8516 31.082C79.5742 31.082 78.8359 32.2422 78.8359 33.8242ZM84.9531 37V30.6367H85.5273V31.6328H85.5742C85.8438 30.9766 86.5469 30.543 87.3672 30.543L87.6719 30.5547V31.1523C87.6016 31.1406 87.4844 31.1172 87.332 31.1172C86.3008 31.1172 85.5391 31.8438 85.5391 32.8398V37H84.9531ZM90.9766 37.1289C89.3711 37.1289 88.2227 35.7578 88.2227 33.8359C88.2227 31.9141 89.3711 30.543 90.9766 30.543C92.582 30.543 93.7305 31.9141 93.7305 33.8359C93.7305 35.7578 92.582 37.1289 90.9766 37.1289ZM90.9766 36.5898C92.3008 36.5898 93.1328 35.3711 93.1328 33.8359C93.1328 32.3125 92.3008 31.082 90.9766 31.082C89.6523 31.082 88.8203 32.3242 88.8203 33.8359C88.8203 35.3711 89.6523 36.5898 90.9766 36.5898ZM95.2188 30.6367H95.8164V37.7266C95.8164 38.7461 95.1602 39.3906 94.1875 39.3906H94.0352V38.8281H94.1758C94.7852 38.8281 95.2188 38.418 95.2188 37.7266V30.6367ZM95.5117 29.5234C95.2539 29.5234 95.043 29.3242 95.043 29.0781C95.043 28.832 95.2539 28.6328 95.5117 28.6328C95.7578 28.6328 95.9688 28.832 95.9688 29.0781C95.9688 29.3242 95.7578 29.5234 95.5117 29.5234ZM100.164 37.1289C98.418 37.1289 97.3047 35.7578 97.3047 33.8477C97.3047 31.9375 98.4531 30.543 100.047 30.543C101.465 30.543 102.719 31.6797 102.719 33.6367V33.9648H97.9023C97.9258 35.5 98.7812 36.5898 100.164 36.5898C101.16 36.5898 101.711 36.0156 101.934 35.6055H102.566C102.297 36.4023 101.441 37.1289 100.164 37.1289ZM97.9141 33.4375H102.121C102.121 32.1133 101.23 31.082 100.047 31.082C98.8633 31.082 97.9844 32.1191 97.9141 33.4375ZM106.621 37.1289C104.957 37.1289 103.844 35.7344 103.844 33.8359C103.844 31.9492 104.98 30.543 106.609 30.543C107.84 30.543 108.812 31.3398 108.988 32.5234H108.391C108.238 31.7031 107.559 31.082 106.621 31.082C105.344 31.082 104.441 32.2188 104.441 33.8242C104.441 35.418 105.32 36.5898 106.621 36.5898C107.523 36.5898 108.238 36.0273 108.402 35.1367H109C108.824 36.3086 107.887 37.1289 106.621 37.1289ZM112.785 30.6367V31.1523H111.449V35.4414C111.449 36.2148 111.941 36.5312 112.492 36.5312L112.949 36.5195V37.0703C112.832 37.0938 112.691 37.1055 112.445 37.1055C111.637 37.1055 110.863 36.5547 110.863 35.5586V31.1523H109.926V30.6367H110.863V29.1133H111.449V30.6367H112.785Z" fill="white"/>
</svg>
