<svg width="20" height="20" viewBox="0 0 20 20" fill="none" xmlns="http://www.w3.org/2000/svg">
<path d="M2.96875 1.5H17.0312C18.118 1.5 19 2.382 19 3.46875V17.5312C19 18.0534 18.7926 18.5542 18.4234 18.9234C18.0542 19.2926 17.5534 19.5 17.0312 19.5H2.96875C2.44661 19.5 1.94585 19.2926 1.57663 18.9234C1.20742 18.5542 1 18.0534 1 17.5312V3.46875C1 2.382 1.882 1.5 2.96875 1.5ZM2.6875 3.46875V17.5312C2.6875 17.6865 2.8135 17.8125 2.96875 17.8125H17.0312C17.1058 17.8125 17.1774 17.7829 17.2301 17.7301C17.2829 17.6774 17.3125 17.6058 17.3125 17.5312V3.46875C17.3125 3.39416 17.2829 3.32262 17.2301 3.26988C17.1774 3.21713 17.1058 3.1875 17.0312 3.1875H2.96875C2.89416 3.1875 2.82262 3.21713 2.76988 3.26988C2.71713 3.32262 2.6875 3.39416 2.6875 3.46875ZM14.2188 4.875C14.4425 4.875 14.6571 4.96389 14.8154 5.12213C14.9736 5.28036 15.0625 5.49497 15.0625 5.71875V14.1562C15.0625 14.38 14.9736 14.5946 14.8154 14.7529C14.6571 14.9111 14.4425 15 14.2188 15C13.995 15 13.7804 14.9111 13.6221 14.7529C13.4639 14.5946 13.375 14.38 13.375 14.1562V5.71875C13.375 5.49497 13.4639 5.28036 13.6221 5.12213C13.7804 4.96389 13.995 4.875 14.2188 4.875ZM4.9375 5.71875C4.9375 5.49497 5.02639 5.28036 5.18463 5.12213C5.34286 4.96389 5.55747 4.875 5.78125 4.875C6.00503 4.875 6.21964 4.96389 6.37787 5.12213C6.53611 5.28036 6.625 5.49497 6.625 5.71875V11.9062C6.625 12.13 6.53611 12.3446 6.37787 12.5029C6.21964 12.6611 6.00503 12.75 5.78125 12.75C5.55747 12.75 5.34286 12.6611 5.18463 12.5029C5.02639 12.3446 4.9375 12.13 4.9375 11.9062V5.71875ZM10 4.875C10.2238 4.875 10.4384 4.96389 10.5966 5.12213C10.7549 5.28036 10.8438 5.49497 10.8438 5.71875V9.65625C10.8438 9.88003 10.7549 10.0946 10.5966 10.2529C10.4384 10.4111 10.2238 10.5 10 10.5C9.77622 10.5 9.56161 10.4111 9.40338 10.2529C9.24514 10.0946 9.15625 9.88003 9.15625 9.65625V5.71875C9.15625 5.49497 9.24514 5.28036 9.40338 5.12213C9.56161 4.96389 9.77622 4.875 10 4.875Z" fill="#4086EF"/>
</svg>
